<svg xmlns="http://www.w3.org/2000/svg" viewBox="0 0 47.17 45.32">
  <defs>
    <style>
      .cls-1{fill:#f78145}
    </style>
  </defs>
  <g id="Calque_2" data-name="Calque 2">
    <g id="Calque_1-2" data-name="Calque 1">
      <path d="M0 17.06s4.54-3.69 8.75 2.23c0 0-4.53 2.88-8.75-2.23m24.31-4.15C24.77 10.45 27.82.27 47 0c0 0-1.8 7.94-13.15 11.68-.48-.08-1-.14-1.45-.18A26.11 26.11 0 0 0 40 6c-3.32 2.52-11.71 5.71-13.1 5.91h-.19Zm-6.03 14.18v-.1.1Z" class="cls-1"/>
      <path d="M31.1 12.47A16.25 16.25 0 0 0 15 28.9a16.25 16.25 0 0 0 16.1 16.42A16.25 16.25 0 0 0 47.17 28.9 16.25 16.25 0 0 0 31.1 12.47Zm-7.86 5c-.39.39-.76.8-1.11 1.22-.18.21-.35.43-.51.65s-.32.45-.48.67l-.45.69c-.14.24-.28.47-.41.72s-.26.49-.39.73-.24.5-.35.75a13.73 13.73 0 0 0-.54 1.57c-.08.27-.16.53-.22.8s-.13.54-.18.81-.09.55-.13.82-.06.55-.1.83l-.07.65-.07-.65c0-.29-.07-.58-.09-.88s0-.59-.05-.88 0-.59 0-.89 0-.59.06-.89a9.83 9.83 0 0 1 .34-1.75 7.06 7.06 0 0 1 .31-.84 7.83 7.83 0 0 1 .4-.8 7.66 7.66 0 0 1 .5-.74 6.7 6.7 0 0 1 .58-.67 10.86 10.86 0 0 1 1.33-1.15c.47-.35 1-.67 1.45-1l1.48-.91a12 12 0 0 0-1.31 1.15Z" class="cls-1"/>
      <path d="M13.92 28.89a17.2 17.2 0 0 1 2.53-9 10.77 10.77 0 0 0-3.24-.5 11.23 11.23 0 0 0 0 22.46 10.75 10.75 0 0 0 5.22-1.35 17.15 17.15 0 0 1-4.51-11.61Zm-6.44-5.76c-.27.29-.51.59-.75.9a11.31 11.31 0 0 0-.66 1c-.21.33-.4.67-.58 1-.09.17-.18.35-.26.53s-.16.36-.23.54a9.13 9.13 0 0 0-.38 1.12 9.75 9.75 0 0 0-.24 1.16c0 .2 0 .39-.07.59s0 .4 0 .59v.68l-.1-.67c0-.21-.07-.42-.1-.62s0-.42-.06-.63 0-.42 0-.63v-.64a7.09 7.09 0 0 1 .19-1.27 4.91 4.91 0 0 1 .2-.61 5.51 5.51 0 0 1 .27-.58 5.17 5.17 0 0 1 .74-1 7.77 7.77 0 0 1 .93-.86c.33-.26.67-.5 1-.73l1-.68a9.16 9.16 0 0 0-.9.81Z" class="cls-1"/>
    </g>
  </g>
</svg>